<svg width="25" height="29" viewBox="0 0 25 29" fill="none" xmlns="http://www.w3.org/2000/svg">
<path fill-rule="evenodd" clip-rule="evenodd" d="M12.594 2.21581C10.316 2.21581 8.13136 3.12072 6.5206 4.73148C4.90984 6.34224 4.00493 8.5269 4.00493 10.8049H2.09625C2.09625 8.02068 3.20226 5.35055 5.17096 3.38184C7.13967 1.41314 9.80981 0.307129 12.594 0.307129C15.3781 0.307129 18.0483 1.41314 20.017 3.38184C21.9857 5.35055 23.0917 8.02068 23.0917 10.8049H21.183C21.183 8.5269 20.2781 6.34224 18.6673 4.73148C17.0566 3.12072 14.8719 2.21581 12.594 2.21581Z" fill="#323334"/>
<path fill-rule="evenodd" clip-rule="evenodd" d="M0.397538 10.2075C0.486981 10.0961 0.600303 10.0062 0.72914 9.94439C0.857976 9.88262 0.99904 9.85056 1.14192 9.85059H24.046C24.1888 9.85064 24.3298 9.88274 24.4586 9.94453C24.5873 10.0063 24.7005 10.0962 24.7899 10.2076C24.8793 10.3189 24.9426 10.4489 24.975 10.588C25.0075 10.7271 25.0083 10.8716 24.9775 11.0111L21.4922 26.6947C21.3511 27.3306 20.9973 27.8994 20.4893 28.3071C19.9812 28.7149 19.3493 28.9372 18.6979 28.9374H6.49003C5.83861 28.9372 5.20672 28.7149 4.69869 28.3071C4.19066 27.8994 3.83687 27.3306 3.69573 26.6947L0.210487 11.0111C0.179864 10.872 0.180769 10.7277 0.213136 10.589C0.245503 10.4503 0.30851 10.3206 0.397538 10.2094V10.2075ZM2.33103 11.7593L5.5586 26.2805C5.60552 26.4926 5.7234 26.6823 5.89275 26.8184C6.06211 26.9544 6.27281 27.0286 6.49003 27.0287H18.6979C18.9152 27.0286 19.1259 26.9544 19.2952 26.8184C19.4646 26.6823 19.5824 26.4926 19.6294 26.2805L22.855 11.7593H2.33294H2.33103Z" fill="#323334"/>
</svg>
