<svg width="23" height="30" viewBox="0 0 23 30" fill="none" xmlns="http://www.w3.org/2000/svg">
<path d="M11.0869 2.21739C12.1833 2.21739 13.2551 2.54251 14.1667 3.15164C15.0783 3.76076 15.7889 4.62653 16.2084 5.63947C16.628 6.65241 16.7378 7.76702 16.5239 8.84235C16.31 9.91768 15.782 10.9054 15.0068 11.6807C14.2315 12.456 13.2437 12.9839 12.1684 13.1978C11.0931 13.4117 9.97846 13.3019 8.96553 12.8824C7.95259 12.4628 7.08681 11.7523 6.47769 10.8407C5.86856 9.92904 5.54344 8.85727 5.54344 7.76087C5.54344 6.29065 6.12749 4.88064 7.16709 3.84104C8.2067 2.80143 9.6167 2.21739 11.0869 2.21739ZM11.0869 0C9.55197 0 8.05148 0.455167 6.77522 1.30794C5.49895 2.16072 4.50422 3.3728 3.91681 4.79091C3.32941 6.20903 3.17572 7.76948 3.47518 9.27494C3.77463 10.7804 4.51378 12.1633 5.59916 13.2486C6.68454 14.334 8.06739 15.0732 9.57285 15.3726C11.0783 15.6721 12.6388 15.5184 14.0569 14.931C15.475 14.3436 16.6871 13.3488 17.5399 12.0726C18.3926 10.7963 18.8478 9.29583 18.8478 7.76087C18.8478 5.70256 18.0301 3.72855 16.5747 2.27311C15.1192 0.817661 13.1452 0 11.0869 0Z" fill="#323334"/>
<path d="M22.1739 29.5651H19.9565V24.0216C19.9565 22.5514 19.3725 21.1414 18.3329 20.1018C17.2933 19.0622 15.8833 18.4781 14.413 18.4781H7.76087C6.29065 18.4781 4.88064 19.0622 3.84104 20.1018C2.80143 21.1414 2.21739 22.5514 2.21739 24.0216V29.5651H0V24.0216C0 21.9633 0.817661 19.9893 2.27311 18.5338C3.72855 17.0784 5.70256 16.2607 7.76087 16.2607H14.413C16.4714 16.2607 18.4454 17.0784 19.9008 18.5338C21.3563 19.9893 22.1739 21.9633 22.1739 24.0216V29.5651Z" fill="#323334"/>
</svg>
